<svg width="27" height="29" fill="none" xmlns="http://www.w3.org/2000/svg"><path d="M13.423 28.16c8.275 0 13.424-5.664 13.424-14.062C26.847 5.646 21.697 0 13.423 0S0 5.646 0 14.098C0 22.496 5.15 28.16 13.423 28.16z" fill="#F74F4F"/><path d="M17.047 7.628c-.841 0-1.612.272-2.292.81-.652.516-1.086 1.173-1.34 1.65-.256-.477-.69-1.134-1.342-1.65a3.617 3.617 0 00-2.292-.81c-2.347 0-4.117 1.964-4.117 4.569 0 2.814 2.208 4.74 5.551 7.654.568.495 1.211 1.056 1.88 1.654a.478.478 0 00.638 0c.669-.598 1.312-1.16 1.88-1.654 3.343-2.915 5.551-4.84 5.551-7.654 0-2.605-1.77-4.57-4.117-4.57z" fill="#fff"/></svg>