<svg width="19" height="17" viewBox="0 0 19 17" fill="none" xmlns="http://www.w3.org/2000/svg">
<path d="M1.83337 1L16.8334 16" stroke="#3C3C43" stroke-width="2" stroke-linecap="round" stroke-linejoin="round"/>
<path d="M8.15334 7.32251C7.84061 7.63502 7.66483 8.05897 7.66467 8.50109C7.66452 8.9432 7.84 9.36728 8.15251 9.68001C8.46502 9.99274 8.88897 10.1685 9.33109 10.1687C9.7732 10.1688 10.1973 9.99336 10.51 9.68084" stroke="#3C3C43" stroke-width="2" stroke-linecap="round" stroke-linejoin="round"/>
<path d="M7.13583 2.97084C7.85035 2.76644 8.59016 2.66404 9.33333 2.66668C12.6667 2.66668 15.4442 4.61084 17.6667 8.50001C17.0183 9.63417 16.3233 10.6033 15.5808 11.4067M13.7975 12.9575C12.4383 13.8742 10.9517 14.3333 9.33333 14.3333C6 14.3333 3.2225 12.3892 1 8.50001C2.14083 6.50418 3.4275 5.02084 4.86 4.04918" stroke="#3C3C43" stroke-width="2" stroke-linecap="round" stroke-linejoin="round"/>
</svg>
