<svg width="10" height="20" viewBox="0 0 10 20" xmlns="http://www.w3.org/2000/svg">
<path d="M0 10.5391H2.41723V19.5241C2.41723 19.5241 2.55601 19.5241 2.72729 19.5241H6.30009C6.47136 19.5241 6.61014 19.5241 6.61014 19.5241V10.58H9.03253C9.19003 10.58 9.30159 10.58 9.30159 10.58L9.76667 6.76613C9.76667 6.76613 9.48886 6.76613 9.4005 6.76613H6.61027V4.76418C6.61027 4.16069 6.9352 3.85467 7.57614 3.85467C7.66749 3.85467 9.71055 3.85467 9.71055 3.85467C9.71055 3.85467 9.71055 3.71583 9.71055 3.54462V0.300781L6.88628 0.303076C6.86854 0.302207 6.82916 0.300781 6.77112 0.300781C6.33488 0.300781 4.81853 0.386418 3.62074 1.48835C2.29359 2.70946 2.47807 4.17154 2.52216 4.42504V6.76607H0C0 6.76607 0 6.90485 0 7.07612V10.229C0 10.4003 0 10.5391 0 10.5391Z" />
</svg>
