<svg width="20" height="20" viewBox="0 0 20 20" xmlns="http://www.w3.org/2000/svg">
<path fill-rule="evenodd" clip-rule="evenodd" d="M10.8238 0.000976562C12.7331 0.00373141 13.1075 0.0176759 14.0393 0.0602578C15.0975 0.108582 15.8201 0.276607 16.4524 0.522326C17.1062 0.776368 17.6605 1.1163 18.2132 1.66896C18.7659 2.22162 19.1058 2.77606 19.3598 3.42977C19.6056 4.06213 19.7737 4.78478 19.8219 5.84291C19.8674 6.83895 19.8802 7.19802 19.8816 9.47601V10.4071C19.8802 12.6852 19.8674 13.0443 19.8219 14.0403C19.7737 15.0984 19.6056 15.8211 19.3598 16.4534C19.1058 17.1071 18.7659 17.6616 18.2132 18.2143C17.6605 18.7669 17.1062 19.1068 16.4524 19.3609C15.8201 19.6066 15.0975 19.7746 14.0393 19.823C13.0754 19.8669 12.708 19.8804 10.6207 19.8825H9.26049C7.1732 19.8804 6.80576 19.8669 5.84184 19.823C4.78372 19.7746 4.06107 19.6066 3.42875 19.3609C2.775 19.1068 2.22064 18.7669 1.66798 18.2143C1.11532 17.6616 0.775391 17.1071 0.52135 16.4534C0.275544 15.8211 0.107519 15.0984 0.0592378 14.0403C0.0166941 13.1085 0.00275429 12.7342 0 10.8248V9.05839C0.00275429 7.14904 0.0166941 6.77469 0.0592378 5.84291C0.107519 4.78478 0.275544 4.06213 0.52135 3.42977C0.775391 2.77606 1.11532 2.22162 1.66798 1.66896C2.22064 1.1163 2.775 0.776368 3.42875 0.522326C4.06107 0.276607 4.78372 0.108582 5.84184 0.0602578C6.77363 0.0176759 7.14805 0.00373141 9.05741 0.000976562H10.8238ZM15.37 3.44161C14.6943 3.44161 14.1465 3.98939 14.1465 4.66513C14.1465 5.34083 14.6943 5.88866 15.37 5.88866C16.0458 5.88866 16.5936 5.34083 16.5936 4.66513C16.5936 3.98939 16.0458 3.44161 15.37 3.44161ZM9.94063 4.58866C6.98429 4.58866 4.58769 6.98527 4.58769 9.94161C4.58769 12.898 6.98429 15.2945 9.94063 15.2945C12.897 15.2945 15.2936 12.898 15.2936 9.94161C15.2936 6.98527 12.897 4.58866 9.94063 4.58866ZM9.94063 13.3828C8.0401 13.3828 6.49945 11.8421 6.49945 9.94161C6.49945 8.04108 8.0401 6.50043 9.94063 6.50043C11.8412 6.50043 13.3818 8.04108 13.3818 9.94161C13.3818 11.8421 11.8412 13.3828 9.94063 13.3828Z" />
</svg>
