<svg width="27" height="29" viewBox="0 0 27 29" fill="none" xmlns="http://www.w3.org/2000/svg">
<path d="M13.4233 28.1605C21.6975 28.1605 26.8466 22.4964 26.8466 14.098C26.8466 5.6463 21.6975 0 13.4233 0C5.14916 0 0 5.6463 0 14.098C0 22.4964 5.14916 28.1605 13.4233 28.1605Z" fill="#F74F4F"/>
<path d="M17.0469 7.62769C16.2058 7.62769 15.4347 7.90038 14.755 8.4382C14.1033 8.95381 13.6695 9.61054 13.4141 10.0881C13.1586 9.61051 12.7248 8.95381 12.0732 8.4382C11.3935 7.90038 10.6223 7.62769 9.78125 7.62769C7.43409 7.62769 5.66406 9.59193 5.66406 12.1967C5.66406 15.0108 7.8723 16.9361 11.2153 19.8508C11.783 20.3458 12.4264 20.9068 13.0952 21.5052C13.1834 21.5842 13.2966 21.6277 13.4141 21.6277C13.5315 21.6277 13.6447 21.5842 13.7329 21.5052C14.4018 20.9068 15.0452 20.3458 15.6132 19.8505C18.9558 16.9361 21.1641 15.0108 21.1641 12.1967C21.1641 9.59193 19.394 7.62769 17.0469 7.62769Z" fill="white"/>
</svg>
