<svg width="32" height="26" viewBox="0 0 32 26" xmlns="http://www.w3.org/2000/svg">
<path d="M14.2222 2.88288C12.7167 3.74775 11.4995 4.5005 10.5706 5.14114C9.64164 5.74975 8.6967 6.56657 7.73574 7.59159C6.83884 8.55255 6.15015 9.56156 5.66967 10.6186C5.18919 11.6757 4.85285 13.037 4.66066 14.7027H6.96697C8.95295 14.7027 10.5065 15.1992 11.6276 16.1922C12.7808 17.1532 13.3574 18.5786 13.3574 20.4685C13.3574 21.8138 12.8448 23.0791 11.8198 24.2643C10.8268 25.4174 9.44945 25.994 7.68769 25.994C4.93293 25.994 2.96296 25.0971 1.77778 23.3033C0.592593 21.4775 0 19.0911 0 16.1441C0 14.0621 0.448448 12.1722 1.34535 10.4745C2.24224 8.74474 3.33133 7.20721 4.61261 5.86186C5.92593 4.48448 7.31932 3.31532 8.79279 2.35435C10.2663 1.39339 11.4995 0.608609 12.4925 0L14.2222 2.88288ZM32 2.88288C30.4945 3.74775 29.2773 4.5005 28.3483 5.14114C27.4194 5.74975 26.4745 6.56657 25.5135 7.59159C24.5846 8.58458 23.8799 9.60961 23.3994 10.6667C22.951 11.6917 22.6306 13.037 22.4384 14.7027H24.7447C26.7307 14.7027 28.2843 15.1992 29.4054 16.1922C30.5586 17.1532 31.1351 18.5786 31.1351 20.4685C31.1351 21.8138 30.6226 23.0791 29.5976 24.2643C28.6046 25.4174 27.2272 25.994 25.4655 25.994C22.7107 25.994 20.7407 25.0971 19.5556 23.3033C18.3704 21.4775 17.7778 19.0911 17.7778 16.1441C17.7778 14.0621 18.2262 12.1722 19.1231 10.4745C20.02 8.74474 21.1091 7.20721 22.3904 5.86186C23.7037 4.48448 25.0971 3.31532 26.5706 2.35435C28.044 1.39339 29.2773 0.608609 30.2703 0L32 2.88288Z" />
</svg>
