<svg width="24" height="20" viewBox="0 0 24 20" xmlns="http://www.w3.org/2000/svg">
<path fill-rule="evenodd" clip-rule="evenodd" d="M21.4035 0.105323L0.47807 8.40565C0.332377 8.46321 0.208171 8.56463 0.122629 8.69587C0.0370885 8.8271 -0.00556049 8.98168 0.000581332 9.13821C0.00672315 9.29474 0.0613522 9.4455 0.156913 9.56963C0.252474 9.69376 0.384244 9.78513 0.534 9.83111L5.80805 11.4637L7.947 18.0831C7.98601 18.204 8.05488 18.3132 8.14724 18.4004C8.2396 18.4877 8.35248 18.5503 8.47543 18.5824C8.59839 18.6145 8.72745 18.615 8.85068 18.584C8.97392 18.553 9.08735 18.4915 9.18048 18.405L12.2793 15.5269L18.158 19.8532C18.2588 19.9272 18.3763 19.9751 18.5001 19.9926C18.6239 20.0101 18.7501 19.9965 18.8674 19.9532C18.9847 19.91 19.0894 19.8382 19.1722 19.7445C19.2549 19.6508 19.3131 19.5381 19.3416 19.4163L23.4336 1.85578C23.4965 1.58688 23.4845 1.30589 23.3989 1.04332C23.3134 0.780748 23.1575 0.546631 22.9483 0.366385C22.7391 0.186139 22.4845 0.0666519 22.2121 0.0208949C21.9398 -0.0248621 21.6601 0.00486 21.4035 0.106834V0.105323ZM9.15328 12.8408L8.50025 16.7559L6.98863 11.2747L21.7572 1.63811L9.15328 12.8392V12.8408Z" />
</svg>
