<svg width="29" height="16" viewBox="0 0 29 16" xmlns="http://www.w3.org/2000/svg">
<path fill-rule="evenodd" clip-rule="evenodd" d="M14.1947 15.9323H15.8713C15.8713 15.9323 16.3769 15.8779 16.6373 15.5987C16.8756 15.3434 16.8671 14.8617 16.8671 14.8617C16.8671 14.8617 16.8331 12.6131 17.8782 12.2812C18.9063 11.9544 20.2289 14.4549 21.6297 15.4166C22.6885 16.1451 23.4936 15.9851 23.4936 15.9851L27.2384 15.934C27.2384 15.934 29.1975 15.8115 28.2682 14.271C28.1933 14.1451 27.7269 13.1323 25.4834 11.0488C23.1344 8.87007 23.4493 9.22242 26.2783 5.45213C28.0009 3.15592 28.6903 1.75334 28.4758 1.15248C28.2716 0.580554 27.0035 0.732044 27.0035 0.732044L22.7855 0.757578C22.7855 0.757578 22.4723 0.715023 22.2408 0.8546C22.0144 0.990773 21.8697 1.30738 21.8697 1.30738C21.8697 1.30738 21.2008 3.08443 20.3123 4.59424C18.4331 7.78409 17.6824 7.9526 17.376 7.75345C16.6611 7.29387 16.8399 5.8998 16.8399 4.91085C16.8399 1.82143 17.3097 0.532893 15.9275 0.199269C15.4696 0.0886289 15.1309 0.0154371 13.9581 0.00352199C12.4534 -0.0117974 11.1802 0.00862885 10.4602 0.360976C9.98016 0.595874 9.60909 1.12014 9.83547 1.14907C10.1146 1.18652 10.7444 1.31929 11.0798 1.77547C11.5121 2.36272 11.4968 3.68359 11.4968 3.68359C11.4968 3.68359 11.7453 7.32111 10.918 7.77218C10.3478 8.08367 9.56824 7.45047 7.89501 4.5568C7.03713 3.07592 6.3886 1.43674 6.3886 1.43674C6.3886 1.43674 6.26435 1.13205 6.04136 0.966944C5.84545 0.837536 5.62546 0.748962 5.39454 0.706514L1.38596 0.732044C1.38596 0.732044 0.785093 0.749067 0.563813 1.0112C0.368064 1.24269 0.548494 1.72611 0.548494 1.72611C0.548494 1.72611 3.68557 9.06412 7.23798 12.7629C10.4959 16.1553 14.1947 15.9323 14.1947 15.9323Z" />
</svg>
