<svg width="26" height="25" viewBox="0 0 26 25" xmlns="http://www.w3.org/2000/svg">
<path fill-rule="evenodd" clip-rule="evenodd" d="M0.962207 12.1869C0.962207 5.46705 6.47065 0 13.2414 0C20.0116 0 25.5195 5.46705 25.5195 12.1869C25.5195 18.9061 20.0116 24.3726 13.2415 24.3725C11.211 24.3725 9.20466 23.8718 7.4295 22.9234L0.942483 24.9847C0.910178 24.995 0.877061 25 0.844188 25C0.758392 25 0.674383 24.9659 0.612451 24.9027C0.526655 24.8153 0.497434 24.6871 0.53672 24.5711L2.64573 18.3499C1.54386 16.4879 0.962207 14.3604 0.962207 12.1869ZM7.88948 20.2384C9.48023 21.2822 11.3308 21.8339 13.2414 21.8339C18.6038 21.8339 22.9664 17.5063 22.9664 12.1869C22.9664 6.86688 18.6037 2.53864 13.2413 2.53864C7.87836 2.53864 3.51521 6.86688 3.51521 12.1869C3.51521 14.2317 4.15555 16.1873 5.36692 17.8425C5.42942 17.9279 5.44638 18.0384 5.41245 18.1386L4.36343 21.2334L7.61302 20.2005C7.64524 20.1903 7.67836 20.1852 7.7114 20.1852C7.7739 20.1852 7.83599 20.2032 7.88948 20.2384ZM18.9526 14.3352C18.9877 14.3524 19.009 14.3629 19.0138 14.3652L19.0139 14.3652C19.2526 14.4798 19.4411 14.5703 19.5505 14.7502C19.7102 15.0147 19.6469 15.7436 19.4068 16.4107C19.102 17.2577 17.7621 17.952 17.1523 18.0061L17.0629 18.0146C16.9219 18.0285 16.7621 18.0441 16.5624 18.0441H16.5623C16.0871 18.0441 15.2513 17.9627 13.4863 17.2576C11.653 16.5252 9.84445 14.9551 8.39372 12.8364C8.38951 12.8303 8.38551 12.8244 8.38174 12.8189C8.36305 12.7915 8.34977 12.7721 8.34193 12.7616C7.96312 12.2623 7.08081 10.9496 7.08081 9.55925C7.08081 8.01444 7.82026 7.13603 8.25735 6.86047C8.66953 6.60064 9.60175 6.47792 9.77294 6.47069C9.87447 6.46641 9.88519 6.46522 9.89594 6.46489C9.90007 6.46477 9.90421 6.46477 9.91352 6.46477C10.2748 6.46477 10.5348 6.684 10.7315 7.15486C10.7512 7.20171 10.8105 7.34437 10.8898 7.53532C11.141 8.13972 11.5933 9.22799 11.626 9.2935C11.6785 9.3965 11.841 9.7155 11.6508 10.0935L11.61 10.1756L11.6097 10.176C11.5319 10.3338 11.4647 10.4701 11.3138 10.6455C11.2654 10.7015 11.216 10.761 11.1668 10.8203L11.1665 10.8207C11.0625 10.9458 10.9551 11.0751 10.8559 11.1732C10.822 11.2072 10.7562 11.2731 10.7491 11.2993C10.7491 11.2993 10.7491 11.2996 10.7492 11.3C10.7498 11.3039 10.7533 11.3266 10.7796 11.3713C10.9831 11.7157 12.4671 13.758 14.4222 14.6073C14.5076 14.6444 14.7897 14.7605 14.806 14.7605C14.8242 14.7605 14.8545 14.7302 14.8768 14.7048C15.047 14.5123 15.5982 13.8681 15.7802 13.5975C15.9413 13.3566 16.148 13.2339 16.3941 13.2339C16.5448 13.2339 16.6864 13.2803 16.8186 13.3278C17.1111 13.433 18.6259 14.1752 18.9526 14.3352Z" />
</svg>
