<svg width="309" height="193" fill="none" xmlns="http://www.w3.org/2000/svg"><path d="M56.068 96.5V0c.005 6.337-1.443 12.613-4.259 18.469-2.816 5.856-6.946 11.176-12.153 15.657-5.207 4.482-11.39 8.035-18.194 10.459C14.657 47.008 7.364 48.254 0 48.25c7.364-.004 14.657 1.242 21.462 3.665 6.804 2.424 12.987 5.977 18.194 10.459 5.207 4.48 9.337 9.801 12.153 15.657 2.816 5.856 4.264 12.132 4.26 18.469z" fill="#23F3A8"/><path d="M112.136 96.5V0c.005 6.337-1.443 12.613-4.259 18.469-2.816 5.856-6.946 11.176-12.153 15.657-5.207 4.482-11.39 8.035-18.194 10.459-6.805 2.423-14.098 3.669-21.462 3.665 7.364-.004 14.657 1.242 21.462 3.665 6.804 2.424 12.987 5.977 18.194 10.459 5.207 4.48 9.337 9.801 12.153 15.657 2.816 5.856 4.264 12.132 4.259 18.469z" fill="#23F3A8"/><path d="M168.205 96.5V0c.004 6.337-1.443 12.613-4.259 18.469-2.816 5.856-6.946 11.176-12.153 15.657-5.208 4.482-11.39 8.035-18.195 10.459-6.804 2.423-14.097 3.669-21.461 3.665 7.364-.004 14.657 1.242 21.461 3.665 6.805 2.424 12.987 5.977 18.195 10.459 5.207 4.48 9.337 9.801 12.153 15.657 2.816 5.856 4.263 12.132 4.259 18.469z" fill="#23F3A8"/><path d="M224.272 96.5V0c.005 6.337-1.443 12.613-4.259 18.469-2.816 5.856-6.946 11.176-12.153 15.657-5.207 4.482-11.39 8.035-18.194 10.459-6.805 2.423-14.098 3.669-21.462 3.665 7.364-.004 14.657 1.242 21.462 3.665 6.804 2.424 12.987 5.977 18.194 10.459 5.207 4.48 9.337 9.801 12.153 15.657 2.816 5.856 4.264 12.132 4.259 18.469z" fill="#23F3A8"/><path d="M280.341 96.5V0c.004 6.337-1.443 12.613-4.259 18.469-2.816 5.856-6.946 11.176-12.153 15.657-5.208 4.482-11.39 8.035-18.195 10.459-6.804 2.423-14.097 3.669-21.462 3.665 7.365-.004 14.658 1.242 21.462 3.665 6.805 2.424 12.987 5.977 18.195 10.459 5.207 4.48 9.337 9.801 12.153 15.657 2.816 5.856 4.263 12.132 4.259 18.469zm-28.034 0V193c-.005-6.337 1.443-12.613 4.259-18.469 2.816-5.856 6.946-11.176 12.153-15.657 5.207-4.482 11.39-8.035 18.194-10.459 6.805-2.423 14.098-3.669 21.462-3.665-7.364.004-14.657-1.242-21.462-3.665-6.804-2.424-12.987-5.977-18.194-10.459-5.207-4.481-9.337-9.801-12.153-15.657-2.816-5.856-4.264-12.132-4.259-18.469z" fill="#23F3A8"/><path d="M196.238 96.5V193c-.004-6.337 1.443-12.613 4.259-18.469 2.816-5.856 6.946-11.176 12.153-15.657 5.208-4.482 11.39-8.035 18.195-10.459 6.804-2.423 14.097-3.669 21.461-3.665-7.364.004-14.657-1.242-21.461-3.665-6.805-2.424-12.987-5.977-18.195-10.459-5.207-4.481-9.337-9.801-12.153-15.657-2.816-5.856-4.263-12.132-4.259-18.469z" fill="#23F3A8"/><path d="M140.171 96.5V193c-.005-6.337 1.443-12.613 4.259-18.469 2.816-5.856 6.946-11.176 12.153-15.657 5.207-4.482 11.39-8.035 18.194-10.459 6.805-2.423 14.098-3.669 21.462-3.665-7.364.004-14.657-1.242-21.462-3.665-6.804-2.424-12.987-5.977-18.194-10.459-5.207-4.481-9.337-9.801-12.153-15.657-2.816-5.856-4.264-12.132-4.259-18.469z" fill="#23F3A8"/><path d="M84.103 96.5V193c-.005-6.337 1.442-12.613 4.259-18.469 2.816-5.856 6.945-11.176 12.153-15.657 5.207-4.482 11.39-8.035 18.194-10.459 6.805-2.423 14.098-3.669 21.462-3.665-7.364.004-14.657-1.242-21.462-3.665-6.804-2.424-12.987-5.977-18.194-10.459-5.208-4.481-9.337-9.801-12.153-15.657-2.817-5.856-4.264-12.132-4.26-18.469z" fill="#23F3A8"/><path d="M28.034 96.5V193c-.004-6.337 1.443-12.613 4.26-18.469 2.815-5.856 6.945-11.176 12.152-15.657 5.208-4.482 11.39-8.035 18.195-10.459 6.804-2.423 14.097-3.669 21.461-3.665-7.364.004-14.657-1.242-21.461-3.665-6.805-2.424-12.987-5.977-18.195-10.459-5.207-4.481-9.337-9.801-12.153-15.657-2.816-5.856-4.263-12.132-4.259-18.469z" fill="#23F3A8"/></svg>