<svg width="263" height="138" fill="none" xmlns="http://www.w3.org/2000/svg"><path d="M26.19 137.19C11.727 137.19 0 106.479 0 68.595S11.726 0 26.19 0c14.466 0 26.192 30.711 26.192 68.595S40.656 137.19 26.19 137.19zm52.382 0c-12.657 0-22.917-30.711-22.917-68.595S65.915 0 78.572 0C91.23 0 101.49 30.711 101.49 68.595S91.23 137.19 78.573 137.19zm45.289 0c-11.15 0-20.189-30.711-20.189-68.595S112.711 0 123.861 0s20.189 30.711 20.189 68.595-9.039 68.595-20.189 68.595zm40.377 0c-9.342 0-16.915-30.711-16.915-68.595S154.896 0 164.238 0c9.342 0 16.915 30.711 16.915 68.595s-7.573 68.595-16.915 68.595zm32.739 0c-7.534 0-13.641-30.711-13.641-68.595S189.443 0 196.977 0s13.641 30.711 13.641 68.595-6.107 68.595-13.641 68.595zm26.737 0c-6.027 0-10.913-30.711-10.913-68.595S217.687 0 223.714 0s10.913 30.711 10.913 68.595-4.886 68.595-10.913 68.595zM244.448 0c4.219 0 7.639 30.712 7.639 68.595 0 37.884-3.42 68.595-7.639 68.595s-7.639-30.711-7.639-68.595c0-37.883 3.42-68.595 7.639-68.595zm14.187 137.19c-2.411 0-4.365-30.711-4.365-68.595S256.224 0 258.635 0C261.046 0 263 30.711 263 68.595s-1.954 68.595-4.365 68.595z" fill="#23F3A8"/></svg>