<svg width="192" height="114" fill="none" xmlns="http://www.w3.org/2000/svg"><path d="M159.341 58.685h-28.728a104.351 104.351 0 01-1.451 15.682h27.103a51.341 51.341 0 003.076-15.682zm-3.076-19.601h-27.103a104.35 104.35 0 011.451 15.681h28.728a51.34 51.34 0 00-3.076-15.681zm-12.389-19.602H123.43a81.034 81.034 0 014.979 15.682h26.25a55.894 55.894 0 00-10.783-15.682zm0 74.487a55.89 55.89 0 0010.781-15.682h-26.248a81.032 81.032 0 01-4.979 15.681h20.446zm-22.326 3.92c-3.046 5.843-6.665 10.504-10.746 13.866-.145.12-.292.237-.439.355a68.05 68.05 0 0012.008-3.681 63.91 63.91 0 0017.338-10.54H121.55zm0-82.327h18.161a63.88 63.88 0 00-17.336-10.54 67.967 67.967 0 00-12.008-3.681c.147.117.294.235.439.355 4.087 3.361 7.698 8.023 10.744 13.866zM29.873 97.89c7.645 4.312 16.342 7.823 25.966 10.461a140.42 140.42 0 008.625 2.072A66.673 66.673 0 0146.491 97.89H29.873zM64.46 3.028A141.96 141.96 0 0055.836 5.1C46.21 7.74 37.51 11.25 29.873 15.562h16.618a66.674 66.674 0 0117.97-12.534zm-31.4 75.259H7.152c3.976 5.712 9.476 10.977 16.4 15.681h19.262a58.88 58.88 0 01-9.754-15.68zm9.754-58.805H23.55c-6.923 4.705-12.423 9.97-16.399 15.682H33.06a58.883 58.883 0 019.754-15.682zm-14.08 39.203H.008c.308 5.354 1.884 10.617 4.704 15.682H31.58a55.296 55.296 0 01-2.846-15.682zm2.846-19.601H4.704C1.892 44.149.316 49.412 0 54.765h28.734a55.299 55.299 0 012.846-15.681zm38.866 58.805H52.287a63.898 63.898 0 0017.336 10.54 68.073 68.073 0 0012.008 3.681c-.147-.118-.294-.235-.44-.355-4.086-3.362-7.697-8.023-10.745-13.866zm-1.876-3.92a81.022 81.022 0 01-4.98-15.682H37.34a55.9 55.9 0 0010.78 15.681h20.45zM48.123 19.482a55.902 55.902 0 00-10.781 15.682H63.59a81.017 81.017 0 014.98-15.682H48.122zm14.714 19.602H35.734a51.357 51.357 0 00-3.076 15.681h28.728c.088-5.256.573-10.498 1.451-15.681zM35.734 74.367h27.103a104.364 104.364 0 01-1.45-15.682h-28.73a51.359 51.359 0 003.076 15.682zm34.712-58.805c3.048-5.843 6.665-10.505 10.748-13.866.145-.12.292-.238.439-.355a67.988 67.988 0 00-12.008 3.681 63.88 63.88 0 00-17.338 10.54h18.16zm2.423 78.407h21.17V78.287H67.602c1.278 5.71 3.046 10.977 5.267 15.681zm-6.053-19.602h27.223V58.685H65.307c.09 5.26.595 10.503 1.509 15.682zm.786-39.203h26.436V19.482h-21.17c-2.22 4.705-3.988 9.972-5.266 15.682zm7.312-19.602H94.04V0c-7.1.86-13.892 6.394-19.126 15.562zm-9.607 39.203h28.732V39.084H66.816a100.164 100.164 0 00-1.51 15.681zm28.733 58.686V97.89H74.913c5.234 9.167 12.026 14.701 19.126 15.561zm32.651-54.766H97.959v15.682h27.223a100.093 100.093 0 001.509-15.682zm-1.509-19.601H97.959v15.681h28.732a100.091 100.091 0 00-1.509-15.681zm-6.053-19.602h-21.17v15.682h26.437c-1.278-5.71-3.048-10.977-5.267-15.682zm5.267 58.805H97.959v15.681h21.17c2.219-4.704 3.989-9.97 5.267-15.68zM97.959 0v15.562h19.125C111.851 6.394 105.059.86 97.959 0zm19.125 97.889H97.959v15.562c7.1-.861 13.892-6.395 19.125-15.562zm46.182-43.124h28.726c-.307-5.353-1.883-10.616-4.704-15.681H160.42a55.278 55.278 0 012.846 15.681zm-2.846 19.602h26.876c2.813-5.065 4.389-10.328 4.704-15.682h-28.734a55.278 55.278 0 01-2.846 15.682zm-11.234 19.602h19.262c6.924-4.705 12.424-9.97 16.399-15.682h-25.908a58.892 58.892 0 01-9.753 15.681zm9.753-58.805h25.908c-3.975-5.712-9.475-10.977-16.399-15.682h-19.262a58.896 58.896 0 019.753 15.682zm3.187-19.602c-7.644-4.313-16.342-7.823-25.966-10.462a140.107 140.107 0 00-8.625-2.072 66.682 66.682 0 0117.973 12.534h16.618zm-34.587 94.861a142.198 142.198 0 008.625-2.072c9.624-2.638 18.326-6.149 25.962-10.461h-16.618a66.659 66.659 0 01-17.969 12.533z" fill="#23F3A8"/></svg>