<?xml version="1.0" encoding="utf-8"?><svg viewBox="0 0 32 29" xmlns="http://www.w3.org/2000/svg" xmlns:xlink="http://www.w3.org/1999/xlink"><style>:root>svg{display:none}:root>svg:target{display:block}</style><svg viewBox="0 0 10 20" id="facebook" xmlns="http://www.w3.org/2000/svg"><path d="M0 10.54h2.417v8.984H6.61V10.58h2.692l.465-3.814H6.61V4.764c0-.603.325-.91.966-.91h2.135V.302L6.886.303c-.017 0-.057-.002-.115-.002-.436 0-1.952.085-3.15 1.187C2.294 2.71 2.478 4.172 2.522 4.425v2.341H0v3.773z"/></svg><svg viewBox="0 0 20 20" id="instagram" xmlns="http://www.w3.org/2000/svg"><path fill-rule="evenodd" clip-rule="evenodd" d="M10.824.001c1.91.003 2.284.017 3.215.06 1.059.048 1.781.216 2.413.461a4.873 4.873 0 011.761 1.147 4.872 4.872 0 011.147 1.76c.246.633.414 1.356.462 2.414.045.996.058 1.355.06 3.633v.931c-.002 2.278-.015 2.637-.06 3.633-.048 1.058-.216 1.781-.462 2.413a4.873 4.873 0 01-1.147 1.761 4.874 4.874 0 01-1.76 1.147c-.633.246-1.355.414-2.414.462-.964.044-1.331.057-3.418.06H9.26c-2.088-.003-2.455-.016-3.42-.06-1.057-.048-1.78-.216-2.412-.462a4.874 4.874 0 01-1.761-1.147 4.874 4.874 0 01-1.147-1.76C.276 15.82.108 15.097.06 14.04.017 13.11.003 12.734 0 10.825V9.058C.003 7.15.017 6.775.06 5.843.107 4.785.275 4.063.52 3.43a4.873 4.873 0 011.147-1.761A4.872 4.872 0 013.428.522C4.062.277 4.785.11 5.843.06 6.774.018 7.148.004 9.057.001h1.767zm4.546 3.44a1.224 1.224 0 100 2.448 1.224 1.224 0 000-2.447zM9.94 4.59a5.353 5.353 0 100 10.706 5.353 5.353 0 000-10.706zm0 8.794a3.441 3.441 0 110-6.883 3.441 3.441 0 010 6.883z"/></svg><svg fill="none" viewBox="0 0 27 29" id="like-fill" xmlns="http://www.w3.org/2000/svg"><path d="M13.423 28.16c8.275 0 13.424-5.664 13.424-14.062C26.847 5.646 21.697 0 13.423 0S0 5.646 0 14.098C0 22.496 5.15 28.16 13.423 28.16z" fill="#F74F4F"/><path d="M17.047 7.628c-.841 0-1.612.272-2.292.81-.652.516-1.086 1.173-1.34 1.65-.256-.477-.69-1.134-1.342-1.65a3.617 3.617 0 00-2.292-.81c-2.347 0-4.117 1.964-4.117 4.569 0 2.814 2.208 4.74 5.551 7.654.568.495 1.211 1.056 1.88 1.654a.478.478 0 00.638 0c.669-.598 1.312-1.16 1.88-1.654 3.343-2.915 5.551-4.84 5.551-7.654 0-2.605-1.77-4.57-4.117-4.57z" fill="#fff"/></svg><svg viewBox="0 0 32 26" id="quote" xmlns="http://www.w3.org/2000/svg"><path d="M14.222 2.883C12.717 3.748 11.5 4.5 10.571 5.14c-.93.609-1.874 1.426-2.835 2.45-.897.962-1.586 1.97-2.066 3.028-.48 1.057-.817 2.418-1.01 4.084h2.307c1.986 0 3.54.496 4.66 1.49 1.154.96 1.73 2.386 1.73 4.275 0 1.346-.512 2.611-1.537 3.796-.993 1.153-2.37 1.73-4.132 1.73-2.755 0-4.725-.897-5.91-2.69C.593 21.477 0 19.09 0 16.143c0-2.082.448-3.972 1.345-5.67a19.973 19.973 0 013.268-4.612 23.594 23.594 0 014.18-3.508A161.464 161.464 0 0112.493 0l1.73 2.883zm17.778 0c-1.506.865-2.723 1.617-3.652 2.258-.929.609-1.873 1.426-2.834 2.45-.93.994-1.634 2.019-2.115 3.076-.448 1.025-.768 2.37-.96 4.036h2.306c1.986 0 3.54.496 4.66 1.49 1.154.96 1.73 2.386 1.73 4.275 0 1.346-.512 2.611-1.537 3.796-.993 1.153-2.37 1.73-4.133 1.73-2.754 0-4.724-.897-5.91-2.69-1.185-1.826-1.777-4.213-1.777-7.16 0-2.082.448-3.972 1.345-5.67a19.973 19.973 0 013.267-4.612 23.592 23.592 0 014.18-3.508A161.225 161.225 0 0130.27 0L32 2.883z"/></svg><svg viewBox="0 0 24 20" id="telegram" xmlns="http://www.w3.org/2000/svg"><path fill-rule="evenodd" clip-rule="evenodd" d="M21.404.105L.478 8.405a.756.756 0 00.056 1.426l5.274 1.633 2.139 6.62a.755.755 0 001.233.321l3.1-2.878 5.878 4.326a.757.757 0 001.184-.437l4.092-17.56a1.51 1.51 0 00-2.03-1.75zM9.154 12.841L8.5 16.756 6.99 11.275l14.768-9.637L9.153 12.84v.002z"/></svg><svg viewBox="0 0 29 16" id="vk" xmlns="http://www.w3.org/2000/svg"><path fill-rule="evenodd" clip-rule="evenodd" d="M14.195 15.932h1.676s.506-.054.766-.333c.239-.256.23-.737.23-.737s-.034-2.249 1.011-2.58c1.028-.328 2.35 2.173 3.752 3.135 1.059.728 1.864.568 1.864.568l3.744-.051s1.96-.122 1.03-1.663c-.075-.126-.541-1.139-2.785-3.222-2.349-2.179-2.034-1.827.795-5.597 1.723-2.296 2.412-3.699 2.198-4.3-.204-.571-1.473-.42-1.473-.42l-4.218.026s-.313-.043-.544.097c-.227.136-.371.452-.371.452s-.67 1.777-1.558 3.287c-1.879 3.19-2.63 3.359-2.936 3.16-.715-.46-.536-1.854-.536-2.843 0-3.09.47-4.378-.912-4.712-.458-.11-.797-.184-1.97-.195-1.505-.016-2.778.005-3.498.357-.48.235-.85.76-.625.788.28.038.91.17 1.245.626.432.588.417 1.909.417 1.909s.248 3.637-.579 4.088c-.57.312-1.35-.322-3.023-3.215-.858-1.481-1.506-3.12-1.506-3.12s-.125-.305-.348-.47a1.746 1.746 0 00-.646-.26L1.386.732s-.6.017-.822.28c-.196.23-.016.714-.016.714s3.138 7.338 6.69 11.037c3.258 3.392 6.957 3.17 6.957 3.17z"/></svg><svg viewBox="0 0 26 25" id="whatsapp" xmlns="http://www.w3.org/2000/svg"><path fill-rule="evenodd" clip-rule="evenodd" d="M.962 12.187C.962 5.467 6.471 0 13.242 0c6.77 0 12.277 5.467 12.277 12.187s-5.507 12.186-12.277 12.185c-2.031 0-4.037-.5-5.813-1.449L.942 24.985a.323.323 0 01-.33-.082.325.325 0 01-.075-.332l2.109-6.221a12.097 12.097 0 01-1.684-6.163zm6.927 8.051a9.728 9.728 0 005.352 1.596c5.363 0 9.725-4.328 9.725-9.647 0-5.32-4.362-9.648-9.725-9.648-5.363 0-9.726 4.328-9.726 9.648 0 2.045.64 4 1.852 5.656.062.085.08.195.045.296l-1.049 3.094 3.25-1.032a.326.326 0 01.276.037zm11.064-5.903l.06.03c.24.115.428.205.537.385.16.265.097.994-.143 1.66-.305.848-1.645 1.542-2.255 1.596l-.09.009c-.14.014-.3.03-.5.03-.475 0-1.31-.082-3.076-.787-1.833-.733-3.642-2.303-5.092-4.422l-.012-.017a2.113 2.113 0 00-.04-.057c-.379-.5-1.261-1.812-1.261-3.203 0-1.545.74-2.423 1.176-2.699.413-.26 1.345-.382 1.516-.39l.123-.005h.018c.36 0 .62.219.818.69l.158.38c.251.605.703 1.693.736 1.758a.85.85 0 01.025.8l-.041.083a1.957 1.957 0 01-.296.47c-.049.055-.098.115-.147.174-.104.126-.212.255-.311.353-.034.034-.1.1-.107.126v.001c0 .004.004.027.03.071.204.345 1.688 2.387 3.643 3.236.086.037.368.154.384.154.018 0 .049-.03.07-.056.171-.193.722-.837.904-1.107.161-.241.368-.364.614-.364.15 0 .292.046.425.094.292.105 1.807.847 2.134 1.007z"/></svg></svg>