<?xml version="1.0" encoding="UTF-8"?> <!-- Generator: Adobe Illustrator 24.0.1, SVG Export Plug-In . SVG Version: 6.00 Build 0) --> <svg xmlns="http://www.w3.org/2000/svg" xmlns:xlink="http://www.w3.org/1999/xlink" id="Layer_1" x="0px" y="0px" viewBox="0 0 16 14" style="enable-background:new 0 0 16 14;" xml:space="preserve"> <style type="text/css"> .st0{fill:#FFFFFF;} </style> <path class="st0" d="M11.7,0c-0.9,0-1.7,0.3-2.4,0.8C8.7,1.3,8.3,2,8,2.5C7.7,2,7.3,1.3,6.6,0.8C5.9,0.3,5.1,0,4.3,0 C1.8,0,0,2,0,4.6c0,2.8,2.3,4.7,5.7,7.7c0.6,0.5,1.3,1.1,1.9,1.7C7.8,14,7.9,14,8,14c0.1,0,0.2,0,0.3-0.1c0.7-0.6,1.4-1.2,1.9-1.7 C13.7,9.3,16,7.4,16,4.6C16,2,14.2,0,11.7,0z"></path> </svg> 